<?xml version="1.0" encoding="utf-8"?>
<!-- Generator: Adobe Illustrator 18.0.0, SVG Export Plug-In . SVG Version: 6.00 Build 0)  -->
<!DOCTYPE svg PUBLIC "-//W3C//DTD SVG 1.1 Tiny//EN" "http://www.w3.org/Graphics/SVG/1.1/DTD/svg11-tiny.dtd">
<svg version="1.1" baseProfile="tiny" id="Layer_1" xmlns="http://www.w3.org/2000/svg" xmlns:xlink="http://www.w3.org/1999/xlink"
	 x="0px" y="0px" viewBox="0 0 25 25" xml:space="preserve">
<g>
	<path fill-rule="evenodd" d="M12.5,16.1c0.8,0,1.5-0.7,1.5-1.5V6.8c0-0.8-0.7-1.5-1.5-1.5c-0.8,0-1.5,0.7-1.5,1.5v7.8
		C11,15.4,11.7,16.1,12.5,16.1z"/>
	<ellipse fill-rule="evenodd" cx="12.6" cy="18.6" rx="1.4" ry="1.3"/>
</g>
<g>
	<path d="M21,24H4c-1.4,0-2.7-0.7-3.4-2c-0.7-1.2-0.7-2.7,0-4L9,3c0.7-1.3,2-2,3.5-2s2.8,0.8,3.5,2l8.5,15.1c0.7,1.2,0.7,2.7,0,4
		C23.7,23.3,22.4,24,21,24z M12.5,2c-1.1,0-2.1,0.6-2.6,1.5L1.4,18.6c-0.5,0.9-0.5,2,0,3C1.9,22.5,2.9,23,4,23h17
		c1.1,0,2-0.6,2.6-1.5c0.5-0.9,0.5-2,0-3L15.1,3.5C14.6,2.6,13.6,2,12.5,2z"/>
</g>
</svg>
