<?xml version="1.0" encoding="utf-8"?>
<!-- Generator: Adobe Illustrator 18.0.0, SVG Export Plug-In . SVG Version: 6.00 Build 0)  -->
<!DOCTYPE svg PUBLIC "-//W3C//DTD SVG 1.1 Tiny//EN" "http://www.w3.org/Graphics/SVG/1.1/DTD/svg11-tiny.dtd">
<svg version="1.1" baseProfile="tiny" id="Layer_1" xmlns="http://www.w3.org/2000/svg" xmlns:xlink="http://www.w3.org/1999/xlink"
	 x="0px" y="0px" viewBox="0 0 25 25" xml:space="preserve">
<g id="Info_1_">
	<path fill="#1D1D1B" d="M12.5,0.8C19,0.8,24.2,6,24.2,12.5c0,6.5-5.3,11.7-11.7,11.7C6,24.2,0.8,19,0.8,12.5C0.8,6,6,0.8,12.5,0.8
		 M12.5,0C5.6,0,0,5.6,0,12.5C0,19.4,5.6,25,12.5,25C19.4,25,25,19.4,25,12.5C25,5.6,19.4,0,12.5,0L12.5,0z"/>
	<path fill-rule="evenodd" fill="#1D1D1B" d="M12.5,9.7c-0.8,0-1.5,0.7-1.5,1.5v7.3c0,0.8,0.7,1.5,1.5,1.5c0.8,0,1.5-0.7,1.5-1.5
		v-7.3C14,10.4,13.3,9.7,12.5,9.7z"/>
	<circle fill-rule="evenodd" fill="#1D1D1B" cx="12.5" cy="6.5" r="1.5"/>
	<circle fill-rule="evenodd" fill="#1D1D1B" cx="12.5" cy="6.5" r="1.5"/>
</g>
</svg>
