<?xml version="1.0" encoding="utf-8"?>
<!-- Generator: Adobe Illustrator 18.0.0, SVG Export Plug-In . SVG Version: 6.00 Build 0)  -->
<!DOCTYPE svg PUBLIC "-//W3C//DTD SVG 1.1 Tiny//EN" "http://www.w3.org/Graphics/SVG/1.1/DTD/svg11-tiny.dtd">
<svg version="1.1" baseProfile="tiny" id="Layer_1" xmlns="http://www.w3.org/2000/svg" xmlns:xlink="http://www.w3.org/1999/xlink"
	 x="0px" y="0px" viewBox="0 0 25 25" xml:space="preserve">
<g id="More_4_">
	<path fill="#1D1D1B" d="M2.5,10.5C1.1,10.5,0,11.6,0,13c0,1.4,1.1,2.5,2.5,2.5S5,14.3,5,13C5,11.6,3.9,10.5,2.5,10.5L2.5,10.5z"/>
	<path fill="#1D1D1B" d="M12.5,10.5c-1.4,0-2.5,1.1-2.5,2.5c0,1.4,1.1,2.5,2.5,2.5c1.4,0,2.5-1.1,2.5-2.5
		C15,11.6,13.9,10.5,12.5,10.5L12.5,10.5z"/>
	<path fill="#1D1D1B" d="M22.5,10.5c-1.4,0-2.5,1.1-2.5,2.5c0,1.4,1.1,2.5,2.5,2.5c1.4,0,2.5-1.1,2.5-2.5
		C25,11.6,23.9,10.5,22.5,10.5L22.5,10.5z"/>
</g>
</svg>
