<?xml version="1.0" encoding="utf-8"?>
<!-- Generator: Adobe Illustrator 18.0.0, SVG Export Plug-In . SVG Version: 6.00 Build 0)  -->
<!DOCTYPE svg PUBLIC "-//W3C//DTD SVG 1.1 Tiny//EN" "http://www.w3.org/Graphics/SVG/1.1/DTD/svg11-tiny.dtd">
<svg version="1.1" baseProfile="tiny" id="Layer_1" xmlns="http://www.w3.org/2000/svg" xmlns:xlink="http://www.w3.org/1999/xlink"
	 x="0px" y="0px" viewBox="0 0 25 25" xml:space="preserve">
<g>
	<polygon fill="#1D1D1B" points="23.5,24.9 23.5,25 23.6,24.9 	"/>
	<path fill="#1D1D1B" d="M12.5,12.3c3.4,0,6.2-2.8,6.2-6.1c0-3.4-2.8-6.1-6.2-6.1C9,0,6.2,2.8,6.2,6.1C6.2,9.5,9,12.3,12.5,12.3z
		 M12.5,0.9c2.9,0,5.3,2.3,5.3,5.2c0,2.9-2.4,5.2-5.3,5.2S7.2,9,7.2,6.1C7.2,3.3,9.6,0.9,12.5,0.9z"/>
	<path fill="#1D1D1B" d="M1.4,24.9H0.5l0.9-5.3c1-3.6,4.4-6.4,11-6.4c6.6,0,10,2.9,11,6.4l0.9,5.3h-0.9h-0.1l0,0l-0.9-5.3
		c-1-3.1-4.1-5.5-10.1-5.5c-6,0-9.1,2.4-10.1,5.5L1.4,24.9z"/>
	<polygon fill="#1D1D1B" points="24.5,25 24.5,25 24.5,25 	"/>
</g>
</svg>
