<?xml version="1.0" encoding="utf-8"?>
<!-- Generator: Adobe Illustrator 18.0.0, SVG Export Plug-In . SVG Version: 6.00 Build 0)  -->
<!DOCTYPE svg PUBLIC "-//W3C//DTD SVG 1.1 Tiny//EN" "http://www.w3.org/Graphics/SVG/1.1/DTD/svg11-tiny.dtd">
<svg version="1.1" baseProfile="tiny" id="Layer_1" xmlns="http://www.w3.org/2000/svg" xmlns:xlink="http://www.w3.org/1999/xlink"
	 x="0px" y="0px" viewBox="0 0 25 25" xml:space="preserve">
<g id="Search_3_">
	<path fill="#1D1D1B" d="M17.5,16c1.3-1.7,2.1-3.8,2.1-6.1c0-5.5-4.4-9.9-9.8-9.9C4.4,0,0,4.4,0,9.9c0,5.5,4.4,9.9,9.8,9.9
		c2.4,0,4.6-0.9,6.3-2.3l7.5,7.5l1.5-1.4L17.5,16z M9.8,19c-4.9,0-9-4.1-9-9.1c0-5,4-9.1,9-9.1c4.9,0,9,4.1,9,9.1
		C18.7,14.9,14.7,19,9.8,19z"/>
</g>
</svg>
